<svg xmlns="http://www.w3.org/2000/svg" width="62" height="62.001" viewBox="0 0 62 62.001">
  <g id="experience" transform="translate(-1 -1)">
    <path id="Path_10" data-name="Path 10" d="M30,56.586l-1.293-1.293-1.414,1.414L30,59.414l6.707-6.707-1.414-1.414Z" fill="#e73c3e"/>
    <path id="Path_11" data-name="Path 11" d="M36.707,6.707,35.293,5.293,30,10.586,28.707,9.293l-1.414,1.414L30,13.414Z" fill="#e73c3e"/>
    <path id="Path_12" data-name="Path 12" d="M54,29a5,5,0,1,0-5-5A5.006,5.006,0,0,0,54,29Zm0-8a3,3,0,1,1-3,3A3,3,0,0,1,54,21Z" fill="#e73c3e"/>
    <path id="Path_13" data-name="Path 13" d="M58.667,33.7l3.124-5.355A8.872,8.872,0,0,0,54.128,15h-.256a8.872,8.872,0,0,0-7.664,13.342L47.759,31H38a3,3,0,0,0-3,3V47.589a7.965,7.965,0,0,0-2-.52V16.931a8.006,8.006,0,1,0-6-1.7V41a1,1,0,0,1-1,1H25V40.272a5.016,5.016,0,0,0-4.01-4.9l-3.539-.71a2,2,0,0,1-1.171-.918A5.008,5.008,0,0,0,17.576,32H18a3,3,0,0,0,2.118-5.123,4.976,4.976,0,0,0-6.173-7.806A5.543,5.543,0,0,0,13.111,19H9.56a5.552,5.552,0,0,0-4.371,8.985A2.95,2.95,0,0,0,5,29a3,3,0,0,0,3,3h.424a5.005,5.005,0,0,0,1.3,1.744,1.921,1.921,0,0,1-1.094.9l-3.617.73A5.017,5.017,0,0,0,1,40.272V46H25V44h1a3,3,0,0,0,3-3V16.411a7.965,7.965,0,0,0,2,.52V47.07a8.006,8.006,0,1,0,6,1.7V34a1,1,0,0,1,1-1H48.926l.407.7C46.63,34.572,45,36.156,45,38c0,2.851,3.869,5,9,5s9-2.149,9-5c0-1.844-1.63-3.428-4.333-4.3ZM10,30V28a1,1,0,0,1,.809-.982A10.532,10.532,0,0,0,15.236,28H16v2a3,3,0,0,1-6,0Zm8,0V28a1,1,0,0,1,0,2ZM7,29a1,1,0,0,1,1-1v2A1,1,0,0,1,7,29Zm1.78-3H8a2.966,2.966,0,0,0-1.47.4A3.538,3.538,0,0,1,9.56,21h2.864A4.95,4.95,0,0,0,12,23h2a3,3,0,1,1,3,3H15.236a8.509,8.509,0,0,1-3.789-.9l-.211-.1H11A2.985,2.985,0,0,0,8.78,26ZM13,35a4.927,4.927,0,0,0,1.541-.268,4.01,4.01,0,0,0,.426.593,1.992,1.992,0,0,1-3.933.006,3.967,3.967,0,0,0,.427-.6A4.9,4.9,0,0,0,13,35Zm10,9H3V40.272a3.008,3.008,0,0,1,2.406-2.94L9.1,36.583c.069-.02.134-.049.2-.073a3.99,3.99,0,0,0,7.4-.007c.093.034.183.072.28.1l3.616.729A3.009,3.009,0,0,1,23,40.272ZM26,9a6,6,0,1,1,6,6A6.006,6.006,0,0,1,26,9ZM38,55a6,6,0,1,1-6-6A6.006,6.006,0,0,1,38,55ZM53.872,17h.256a6.872,6.872,0,0,1,5.936,10.334l-5.424,9.3a.771.771,0,0,1-1.28,0l-5.424-9.3A6.872,6.872,0,0,1,53.872,17ZM54,41c-4.006,0-7-1.584-7-3,0-.953,1.384-1.962,3.371-2.523l1.262,2.163a2.741,2.741,0,0,0,4.735,0l1.262-2.163C59.616,36.038,61,37.047,61,38c0,1.416-2.994,3-7,3Z" fill="#e73c3e"/>
    <path id="Path_14" data-name="Path 14" d="M5,48H19v2H5Z" fill="#e73c3e"/>
    <path id="Path_15" data-name="Path 15" d="M5,52H19v2H5Z" fill="#e73c3e"/>
    <path id="Path_16" data-name="Path 16" d="M9,56h2v2H9Z" fill="#e73c3e"/>
    <path id="Path_17" data-name="Path 17" d="M5,56H7v2H5Z" fill="#e73c3e"/>
    <path id="Path_18" data-name="Path 18" d="M13,56h2v2H13Z" fill="#e73c3e"/>
    <path id="Path_19" data-name="Path 19" d="M17,56h2v2H17Z" fill="#e73c3e"/>
  </g>
</svg>
