<svg xmlns="http://www.w3.org/2000/svg" width="512.004" height="512" viewBox="0 0 512.004 512">
  <g id="guarantee" transform="translate(0 -0.004)">
    <path id="Path_10" data-name="Path 10" d="M490.926,213.906l-6.586-4.926a22.073,22.073,0,0,1-7.082-26.426L480.5,175a52.578,52.578,0,0,0-42.1-72.91l-8.164-.977a22.068,22.068,0,0,1-19.348-19.344l-.973-8.168A52.579,52.579,0,0,0,337.008,31.5l-7.562,3.238A22.068,22.068,0,0,1,303.02,27.66l-4.926-6.582a52.576,52.576,0,0,0-84.188,0l-4.93,6.582a22.061,22.061,0,0,1-26.426,7.082L174.992,31.5A52.579,52.579,0,0,0,102.082,73.6l-.977,8.164a22.069,22.069,0,0,1-19.348,19.348l-8.164.977A52.579,52.579,0,0,0,31.5,175l3.238,7.559a22.068,22.068,0,0,1-7.082,26.426l-6.582,4.926a52.58,52.58,0,0,0,0,84.191l6.586,4.926a22.073,22.073,0,0,1,7.082,26.426L31.5,337.008a52.578,52.578,0,0,0,42.1,72.91l8.164.977a22.068,22.068,0,0,1,19.348,19.344l.973,8.168a52.579,52.579,0,0,0,72.91,42.094l7.563-3.238a22.068,22.068,0,0,1,26.426,7.082l4.926,6.582a52.574,52.574,0,0,0,84.191,0l4.926-6.582a22.064,22.064,0,0,1,26.43-7.078l7.559,3.234a52.574,52.574,0,0,0,72.91-42.094l.973-8.164a22.068,22.068,0,0,1,19.348-19.348l8.164-.973A52.576,52.576,0,0,0,480.5,337.008l-3.234-7.555a22.067,22.067,0,0,1,7.082-26.43l6.582-4.926a52.577,52.577,0,0,0,0-84.192Zm-11.984,68.18-6.582,4.926a42.006,42.006,0,0,0-13.48,50.316l3.234,7.555a32.579,32.579,0,0,1-26.082,45.18l-8.164.973a42.009,42.009,0,0,0-36.832,36.836l-.977,8.164a32.575,32.575,0,0,1-45.176,26.082l-7.559-3.238a42.014,42.014,0,0,0-50.316,13.484l-4.926,6.582a32.58,32.58,0,0,1-52.168,0l-4.926-6.582a42.006,42.006,0,0,0-50.312-13.484l-7.559,3.238a32.577,32.577,0,0,1-45.18-26.082l-.973-8.164a42.012,42.012,0,0,0-36.836-36.832l-8.164-.977a32.575,32.575,0,0,1-26.082-45.176l3.238-7.559a42.019,42.019,0,0,0-13.48-50.316l-6.586-4.926a32.583,32.583,0,0,1,0-52.168l6.582-4.926a42.008,42.008,0,0,0,13.48-50.316l-3.234-7.559a32.575,32.575,0,0,1,26.082-45.176l8.164-.977a42,42,0,0,0,36.832-36.832l.977-8.164a32.575,32.575,0,0,1,45.176-26.082l7.559,3.234a42.014,42.014,0,0,0,50.316-13.48l4.926-6.582a32.576,32.576,0,0,1,52.164,0l4.93,6.586a42.008,42.008,0,0,0,50.313,13.48l7.559-3.238a32.575,32.575,0,0,1,45.176,26.082l.977,8.164a42.008,42.008,0,0,0,36.832,36.832l8.164.977a32.579,32.579,0,0,1,26.086,45.176l-3.238,7.559a42.012,42.012,0,0,0,13.48,50.316l6.582,4.926a32.58,32.58,0,0,1,0,52.168Zm0,0" fill="#e73c3e"/>
    <path id="Path_11" data-name="Path 11" d="M256,58.121a196,196,0,0,0-86.1,19.668,10,10,0,1,0,8.711,18A176.193,176.193,0,0,1,256,78.121c98.082,0,177.879,79.8,177.879,177.883S354.082,433.883,256,433.883,78.117,354.086,78.117,256a176.063,176.063,0,0,1,37.789-109.625,10,10,0,1,0-15.742-12.34A195.923,195.923,0,0,0,58.121,256c0,109.109,88.77,197.879,197.879,197.879S453.879,365.114,453.879,256,365.109,58.121,256,58.121Zm0,0" fill="#e73c3e"/>
    <path id="Path_12" data-name="Path 12" d="M109.789,205.086l-7.617,9.711a10,10,0,0,0,15.734,12.344l4.184-5.328v66.137h-6.7a10,10,0,0,0,0,20h33.047a10,10,0,0,0,0-20H142.09V211.258a10,10,0,0,0-10-10H117.656a9.994,9.994,0,0,0-7.867,3.828Zm0,0" fill="#e73c3e"/>
    <path id="Path_13" data-name="Path 13" d="M190.148,307.949h5.2A29.981,29.981,0,0,0,225.293,278V229.527a29.987,29.987,0,0,0-29.949-29.953h-5.2A29.984,29.984,0,0,0,160.2,229.527V278A29.981,29.981,0,0,0,190.148,307.949ZM180.2,229.527a9.963,9.963,0,0,1,9.949-9.953h5.2a9.963,9.963,0,0,1,9.949,9.953V278a9.963,9.963,0,0,1-9.949,9.949h-5.2A9.963,9.963,0,0,1,180.2,278Zm0,0" fill="#e73c3e"/>
    <path id="Path_14" data-name="Path 14" d="M270.738,307.949A29.981,29.981,0,0,0,300.687,278V229.527a29.987,29.987,0,0,0-29.949-29.953h-5.2a29.984,29.984,0,0,0-29.949,29.953V278a29.981,29.981,0,0,0,29.949,29.949ZM255.594,278V229.527a9.963,9.963,0,0,1,9.949-9.953h5.2a9.963,9.963,0,0,1,9.949,9.953V278a9.963,9.963,0,0,1-9.949,9.949h-5.2A9.96,9.96,0,0,1,255.594,278Zm0,0" fill="#e73c3e"/>
    <path id="Path_15" data-name="Path 15" d="M402.8,198.359a10,10,0,0,0-13.969,2.207l-63.539,87.379a10,10,0,1,0,16.176,11.762l63.539-87.379a10,10,0,0,0-2.207-13.969Zm0,0" fill="#e73c3e"/>
    <path id="Path_16" data-name="Path 16" d="M165.93,160.277a9.967,9.967,0,0,0,6.57-2.465,127.025,127.025,0,0,1,161.91-4.219,10,10,0,1,0,12.359-15.723,147.021,147.021,0,0,0-187.422,4.875,10,10,0,0,0,6.582,17.531Zm0,0" fill="#e73c3e"/>
    <path id="Path_17" data-name="Path 17" d="M164.09,369.176a147.144,147.144,0,0,0,156.461,15.9,10,10,0,1,0-8.949-17.887A127.143,127.143,0,0,1,176.445,353.45a10,10,0,0,0-12.355,15.727Zm0,0" fill="#e73c3e"/>
    <path id="Path_18" data-name="Path 18" d="M354.2,352.07a9.994,9.994,0,1,0-1.7,13.063A10.109,10.109,0,0,0,354.2,352.07Zm0,0" fill="#e73c3e"/>
    <path id="Path_19" data-name="Path 19" d="M337.223,196.449a23.533,23.533,0,1,0,23.531,23.531A23.559,23.559,0,0,0,337.223,196.449Zm0,27.066a3.535,3.535,0,1,1,3.531-3.535A3.539,3.539,0,0,1,337.223,223.515Zm0,0" fill="#e73c3e"/>
    <path id="Path_20" data-name="Path 20" d="M369.191,280.926a23.533,23.533,0,1,0,23.531-23.535A23.562,23.562,0,0,0,369.191,280.926Zm27.066,0a3.533,3.533,0,1,1-3.531-3.535A3.536,3.536,0,0,1,396.257,280.926Zm0,0" fill="#e73c3e"/>
    <path id="Path_21" data-name="Path 21" d="M129.473,113.453a10,10,0,1,0,3.68-12.137,10.088,10.088,0,0,0-3.68,12.137Zm0,0" fill="#e73c3e"/>
  </g>
</svg>
