<svg xmlns="http://www.w3.org/2000/svg" width="384" height="480.005" viewBox="0 0 384 480.005">
  <g id="idea" transform="translate(-48.003)">
    <g id="Group_2" data-name="Group 2">
      <g id="Group_1" data-name="Group 1">
        <path id="Path_1" data-name="Path 1" d="M240,48a8,8,0,0,0,8-8V8a8,8,0,0,0-16,0V40A8,8,0,0,0,240,48Z" fill="#e73c3e"/>
        <path id="Path_2" data-name="Path 2" d="M141.075,36.656l16,27.7a8,8,0,1,0,13.909-7.909c-.017-.031-.035-.061-.053-.092l-16-27.7a8,8,0,1,0-13.909,7.909C141.039,36.6,141.057,36.626,141.075,36.656Z" fill="#e73c3e"/>
        <path id="Path_3" data-name="Path 3" d="M76.567,106.875l.092.053,27.7,16a8,8,0,0,0,8.091-13.8l-.092-.053-27.7-16a8,8,0,1,0-8.091,13.8Z" fill="#e73c3e"/>
        <path id="Path_4" data-name="Path 4" d="M96,192a8,8,0,0,0-8-8H56a8,8,0,0,0,0,16H88A8,8,0,0,0,96,192Z" fill="#e73c3e"/>
        <path id="Path_5" data-name="Path 5" d="M104.456,261.018l-.093.054-27.7,16a8,8,0,0,0,7.906,13.91l.093-.054,27.7-16a8,8,0,0,0-7.906-13.91Z" fill="#e73c3e"/>
        <path id="Path_6" data-name="Path 6" d="M403.44,277.126l-.093-.054-27.7-16a8,8,0,1,0-8.094,13.8l.093.054,27.7,16a8,8,0,0,0,8.094-13.8Z" fill="#e73c3e"/>
        <path id="Path_7" data-name="Path 7" d="M424,184H392a8,8,0,1,0,0,16h32a8,8,0,0,0,0-16Z" fill="#e73c3e"/>
        <path id="Path_8" data-name="Path 8" d="M371.651,124a8,8,0,0,0,4-1.072l27.7-16a8,8,0,0,0-7.909-13.909l-.092.053-27.7,16a8,8,0,0,0,4,14.928Z" fill="#e73c3e"/>
        <path id="Path_9" data-name="Path 9" d="M311.993,67.291l.009,0a8,8,0,0,0,10.927-2.934v0l16-27.7a8,8,0,0,0-13.8-8.094l-.054.093-16,27.7A8,8,0,0,0,311.993,67.291Z" fill="#e73c3e"/>
        <path id="Path_10" data-name="Path 10" d="M256,320a8,8,0,0,0,8-8V224h16a32,32,0,1,0-32-32v16H232V192a32,32,0,1,0-32,32h16v88a8,8,0,0,0,16,0V224h16v88A8,8,0,0,0,256,320Zm8-128a16,16,0,1,1,16,16H264Zm-48,16H200a16,16,0,1,1,16-16Z" fill="#e73c3e"/>
        <path id="Path_11" data-name="Path 11" d="M246.219,64.152a128,128,0,0,0-87.352,226.792A23.842,23.842,0,0,1,168,309.24V328a24,24,0,0,0,16,22.528V360a23.848,23.848,0,0,0,6.24,16,23.633,23.633,0,0,0,0,32A23.9,23.9,0,0,0,208,448a7.8,7.8,0,0,0,6.576-12.3,8.482,8.482,0,0,0-.9-1.384,8.267,8.267,0,0,0-2.224-1.456c-.232-.12-.464-.216-.7-.312a8.482,8.482,0,0,0-2.52-.5c-.08,0-.152-.048-.232-.048a8,8,0,0,1,0-16h32a8,8,0,1,0,0-16H208a8,8,0,0,1,0-16h32a8,8,0,1,0,0-16H208a8,8,0,0,1-8-8v-8h40a8,8,0,1,0,0-16H192a8,8,0,0,1-8-8V309.24a39.769,39.769,0,0,0-15-30.68,112,112,0,0,1,76.456-198.4A113.288,113.288,0,0,1,352,191.32a111.343,111.343,0,0,1-41.56,87.7A39.657,39.657,0,0,0,296,310.168V328a8,8,0,0,1-8,8H264a8,8,0,0,0,0,16h16v8a8,8,0,0,1-8,8h-8a8,8,0,0,0,0,16h8a8,8,0,0,1,0,16h-8a8,8,0,0,0,0,16h8a8,8,0,0,1,0,16H232a8,8,0,0,0,0,16h30.632a24,24,0,0,1-40.568,7.944,8,8,0,0,0-11.952,10.64,39.912,39.912,0,0,0,69.208-19.848A23.767,23.767,0,0,0,289.763,408a23.633,23.633,0,0,0,0-32A23.848,23.848,0,0,0,296,360v-9.472A24,24,0,0,0,312,328V310.168a24.05,24.05,0,0,1,8.488-18.7A127.241,127.241,0,0,0,368,191.2,129.488,129.488,0,0,0,246.219,64.152Z" fill="#e73c3e"/>
      </g>
    </g>
  </g>
</svg>
