<svg xmlns="http://www.w3.org/2000/svg" width="27.604" height="27.604" viewBox="0 0 27.604 27.604">
  <g id="phone" transform="translate(-0.002 0)">
    <g id="Group_2" data-name="Group 2" transform="translate(17.023 0)">
      <g id="Group_1" data-name="Group 1">
        <path id="Path_1" data-name="Path 1" d="M316.186,0a.46.46,0,1,0,0,.92,9.212,9.212,0,0,1,9.2,9.2.46.46,0,0,0,.92,0A10.133,10.133,0,0,0,316.186,0Z" transform="translate(-315.726)" fill="#e73c3e"/>
      </g>
    </g>
    <g id="Group_4" data-name="Group 4" transform="translate(17.023 2.76)">
      <g id="Group_3" data-name="Group 3">
        <path id="Path_2" data-name="Path 2" d="M316.186,51.2a.46.46,0,1,0,0,.92,6.448,6.448,0,0,1,6.441,6.441.46.46,0,1,0,.92,0A7.369,7.369,0,0,0,316.186,51.2Z" transform="translate(-315.726 -51.2)" fill="#e73c3e"/>
      </g>
    </g>
    <g id="Group_6" data-name="Group 6" transform="translate(17.023 5.52)">
      <g id="Group_5" data-name="Group 5">
        <path id="Path_3" data-name="Path 3" d="M316.186,102.4a.46.46,0,1,0,0,.92A3.685,3.685,0,0,1,319.867,107a.46.46,0,0,0,.92,0A4.606,4.606,0,0,0,316.186,102.4Z" transform="translate(-315.726 -102.4)" fill="#e73c3e"/>
      </g>
    </g>
    <g id="Group_8" data-name="Group 8" transform="translate(0.002 0)">
      <g id="Group_7" data-name="Group 7" transform="translate(0 0)">
        <path id="Path_4" data-name="Path 4" d="M24.9,17.264a16.813,16.813,0,0,1-3.669-.912,3.158,3.158,0,0,0-3.318.708L16.457,18.51a20.993,20.993,0,0,1-7.4-7.384l1.455-1.452a3.143,3.143,0,0,0,.708-3.31A16.744,16.744,0,0,1,10.307,2.7,3.154,3.154,0,0,0,7.167,0H3.142c-.094,0-.188,0-.281.013A3.139,3.139,0,0,0,.015,3.428,27.049,27.049,0,0,0,4.2,15.235a26.767,26.767,0,0,0,8.188,8.173,27.183,27.183,0,0,0,11.788,4.183q.142.012.286.012h.009A3.144,3.144,0,0,0,27.6,24.454V20.443A3.14,3.14,0,0,0,24.9,17.264Zm1.787,3.163v4.03a2.224,2.224,0,0,1-2.214,2.227c-.072,0-.141,0-.2-.008a26.259,26.259,0,0,1-11.382-4.042,25.85,25.85,0,0,1-7.91-7.9A26.125,26.125,0,0,1,.93,3.337,2.22,2.22,0,0,1,2.945.929c.066-.006.132-.009.2-.009H7.194a2.227,2.227,0,0,1,2.2,1.9,17.663,17.663,0,0,0,.965,3.865,2.22,2.22,0,0,1-.5,2.338l-1.7,1.7a.46.46,0,0,0-.075.553A21.91,21.91,0,0,0,16.3,19.485a.46.46,0,0,0,.552-.075l1.7-1.7a2.236,2.236,0,0,1,2.347-.5,17.715,17.715,0,0,0,3.866.962A2.219,2.219,0,0,1,26.684,20.426Z" transform="translate(-0.002 0)" fill="#e73c3e"/>
      </g>
    </g>
    <g id="Group_10" data-name="Group 10" transform="translate(1.84 1.84)">
      <g id="Group_9" data-name="Group 9">
        <path id="Path_5" data-name="Path 5" d="M39.159,34.134H35.4c-.039,0-.077,0-.115.005A1.3,1.3,0,0,0,34.1,35.527a26.281,26.281,0,0,0,.936,4.719.461.461,0,0,0,.441.328.455.455,0,0,0,.132-.019.46.46,0,0,0,.309-.572,25.318,25.318,0,0,1-.9-4.546.365.365,0,0,1,.089-.246.405.405,0,0,1,.293-.137h3.76a.46.46,0,0,0,0-.92Z" transform="translate(-34.097 -34.134)" fill="#e73c3e"/>
      </g>
    </g>
    <g id="Group_12" data-name="Group 12" transform="translate(19.324 20.242)">
      <g id="Group_11" data-name="Group 11">
        <path id="Path_6" data-name="Path 6" d="M364.377,375.467a.46.46,0,0,0-.46.46v3.754a.383.383,0,0,1-.111.274.375.375,0,0,1-.259.113H363.5a25.3,25.3,0,0,1-4.515-.9.46.46,0,0,0-.264.882,26.235,26.235,0,0,0,4.688.934c.038,0,.115.005.126.005a1.3,1.3,0,0,0,1.3-1.309v-3.752A.46.46,0,0,0,364.377,375.467Z" transform="translate(-358.396 -375.467)" fill="#e73c3e"/>
      </g>
    </g>
  </g>
</svg>
