<svg xmlns="http://www.w3.org/2000/svg" width="62" height="62" viewBox="0 0 62 62">
  <g id="responsibility" transform="translate(-1 -1)">
    <path id="Path_1" data-name="Path 1" d="M12,18v2a5.993,5.993,0,0,0,2.767,5.046,2.588,2.588,0,0,1-2,.954h-.146A4.623,4.623,0,0,0,8,30.618V36a1,1,0,0,0,1,1H27a1,1,0,0,0,1-1V33h8v3a1,1,0,0,0,1,1H55a1,1,0,0,0,1-1V30.618A4.623,4.623,0,0,0,51.382,26h-.146a2.586,2.586,0,0,1-2-.954A5.994,5.994,0,0,0,52,20V18a6,6,0,0,0-12,0v2a5.993,5.993,0,0,0,2.767,5.046,2.565,2.565,0,0,1-1.127.786A4.625,4.625,0,0,0,37.382,23h-.146a2.586,2.586,0,0,1-2-.954A5.994,5.994,0,0,0,38,17V15a6,6,0,1,0-12,0v2a5.993,5.993,0,0,0,2.767,5.046,2.588,2.588,0,0,1-2,.954h-.146a4.624,4.624,0,0,0-4.258,2.833,2.565,2.565,0,0,1-1.127-.786A6,6,0,0,0,24,20V18a6,6,0,0,0-12,0ZM26,35H10V30.618A2.621,2.621,0,0,1,12.618,28h.146a4.71,4.71,0,0,0,.755-.067l.36.36A5.818,5.818,0,0,0,22,28.4V32a1,1,0,0,0,1,1h3Zm25.382-7A2.621,2.621,0,0,1,54,30.618V35H38V33h3a1,1,0,0,0,1-1V28.4a5.818,5.818,0,0,0,8.121-.11l.36-.36a4.709,4.709,0,0,0,.755.067ZM42,18a4,4,0,0,1,8,0v2a4,4,0,0,1-8,0Zm4,8a5.984,5.984,0,0,0,1.34-.156,4.6,4.6,0,0,0,1.128,1.228,3.917,3.917,0,0,1-4.936,0,4.585,4.585,0,0,0,1.128-1.228A5.984,5.984,0,0,0,46,26ZM28,15a4,4,0,0,1,8,0v2a4,4,0,0,1-8,0Zm4,8a5.984,5.984,0,0,0,1.34-.156,4.6,4.6,0,0,0,1.128,1.228,3.917,3.917,0,0,1-4.936,0,4.585,4.585,0,0,0,1.128-1.228A5.984,5.984,0,0,0,32,23Zm-8,4.618A2.621,2.621,0,0,1,26.618,25h.146a4.71,4.71,0,0,0,.755-.067l.36.36a5.828,5.828,0,0,0,8.242,0l.36-.36a4.709,4.709,0,0,0,.755.067h.146A2.621,2.621,0,0,1,40,27.618V31H24Zm-3.532-.547a3.917,3.917,0,0,1-4.936,0,4.585,4.585,0,0,0,1.128-1.228,5.815,5.815,0,0,0,2.68,0,4.566,4.566,0,0,0,1.128,1.227ZM22,18v2a4,4,0,0,1-8,0V18a4,4,0,0,1,8,0Z" fill="#e73c3e"/>
    <path id="Path_2" data-name="Path 2" d="M56.694,43.319,36.205,48.907a3.844,3.844,0,0,0-.5-.615l-7-7A1,1,0,0,0,28,41H17V40a1,1,0,0,0-1-1H2a1,1,0,0,0-1,1V62a1,1,0,0,0,1,1h8a1,1,0,0,0,1-1V61h5a1,1,0,0,0,1-1V59h6.838l5.846,1.948a.987.987,0,0,0,.641,0l32-11A1,1,0,0,0,63,49V48a4.859,4.859,0,0,0-6.306-4.681ZM9,61H3V41H9Zm6-2H11V41h4ZM61,48.286,30,58.944l-5.679-1.893A1.03,1.03,0,0,0,24,57H17V43H27.586l6.707,6.707a1.829,1.829,0,0,1-2.586,2.586l-5-5-1.414,1.414,5,5a3.814,3.814,0,0,0,6.516-2.891L57.22,45.249A2.862,2.862,0,0,1,61,48Z" fill="#e73c3e"/>
    <path id="Path_3" data-name="Path 3" d="M41.162,2.376q-.972-.3-1.969-.537l-.464,1.945q.935.222,1.843.5Z" fill="#e73c3e"/>
    <path id="Path_4" data-name="Path 4" d="M61,32c0,.45-.01.9-.031,1.344l2,.092Q63,32.722,63,32q0-.3-.006-.6l-2,.039c0,.189.006.378.006.566Z" fill="#e73c3e"/>
    <path id="Path_5" data-name="Path 5" d="M37.193,1.433c-.659-.111-1.339-.2-2.023-.273l-.2,1.99q.956.1,1.892.256Z" fill="#e73c3e"/>
    <path id="Path_6" data-name="Path 6" d="M60.326,25.752l1.953-.43c-.146-.664-.315-1.329-.5-1.978l-1.921.557q.264.915.471,1.851Z" fill="#e73c3e"/>
    <path id="Path_7" data-name="Path 7" d="M44.979,3.839c-.62-.286-1.254-.553-1.884-.794L42.38,4.912q.9.344,1.761.743Z" fill="#e73c3e"/>
    <path id="Path_8" data-name="Path 8" d="M60.9,29.526l1.993-.17q-.087-1.023-.239-2.026l-1.978.3q.144.939.224,1.9Z" fill="#e73c3e"/>
    <path id="Path_9" data-name="Path 9" d="M55.74,15.342l1.636-1.15q-.586-.836-1.227-1.63L54.59,13.816q.6.744,1.15,1.526Z" fill="#e73c3e"/>
    <path id="Path_10" data-name="Path 10" d="M59.262,22.087l1.88-.684c-.233-.64-.489-1.276-.76-1.892l-1.83.807q.383.87.71,1.769Z" fill="#e73c3e"/>
    <path id="Path_11" data-name="Path 11" d="M54.817,11.015c-.455-.495-.937-.985-1.431-1.456l-1.38,1.447q.69.659,1.338,1.362Z" fill="#e73c3e"/>
    <path id="Path_12" data-name="Path 12" d="M48.566,5.793C48,5.432,47.4,5.083,46.8,4.757l-.955,1.758q.84.457,1.646.968Z" fill="#e73c3e"/>
    <path id="Path_13" data-name="Path 13" d="M59.627,40.845l1.9.609c.208-.65.4-1.312.557-1.966l-1.941-.48q-.231.931-.521,1.837Z" fill="#e73c3e"/>
    <path id="Path_14" data-name="Path 14" d="M62.808,35.471,60.82,35.25q-.106.954-.274,1.889l1.969.354c.119-.666.217-1.346.293-2.022Z" fill="#e73c3e"/>
    <path id="Path_15" data-name="Path 15" d="M51.864,8.2c-.522-.435-1.064-.859-1.609-1.257L49.076,8.557q.772.564,1.505,1.177Z" fill="#e73c3e"/>
    <path id="Path_16" data-name="Path 16" d="M57.724,18.6l1.773-.926c-.313-.6-.65-1.2-1-1.775l-1.708,1.039Q57.283,17.751,57.724,18.6Z" fill="#e73c3e"/>
    <path id="Path_17" data-name="Path 17" d="M4.206,23.695l-1.917-.572c-.194.653-.369,1.317-.518,1.976l1.95.443Q3.934,24.606,4.206,23.695Z" fill="#e73c3e"/>
    <path id="Path_18" data-name="Path 18" d="M5.538,20.118,3.715,19.3c-.277.614-.538,1.251-.776,1.891l1.874.7q.333-.9.725-1.768Z" fill="#e73c3e"/>
    <path id="Path_19" data-name="Path 19" d="M7.333,16.744l-1.7-1.055c-.357.576-.7,1.172-1.019,1.771l1.765.94Q6.83,17.556,7.333,16.744Z" fill="#e73c3e"/>
    <path id="Path_20" data-name="Path 20" d="M9.554,13.636,8.006,12.37q-.646.789-1.241,1.62l1.626,1.164Q8.949,14.377,9.554,13.636Z" fill="#e73c3e"/>
    <path id="Path_21" data-name="Path 21" d="M3.022,33.13C3.007,32.755,3,32.377,3,32c0-.262,0-.521.01-.78l-2-.055C1,31.441,1,31.721,1,32q0,.6.023,1.205Z" fill="#e73c3e"/>
    <path id="Path_22" data-name="Path 22" d="M3.36,27.417,1.384,27.1c-.106.67-.191,1.351-.253,2.024l1.991.184Q3.211,28.354,3.36,27.417Z" fill="#e73c3e"/>
    <path id="Path_23" data-name="Path 23" d="M1.167,35.243q.106,1.023.278,2.022l1.972-.338q-.161-.936-.26-1.892Z" fill="#e73c3e"/>
    <path id="Path_24" data-name="Path 24" d="M15.111,8.421,13.943,6.8q-.828.6-1.617,1.243L13.6,9.586Q14.334,8.98,15.111,8.421Z" fill="#e73c3e"/>
    <path id="Path_25" data-name="Path 25" d="M21.822,4.837l-.7-1.873c-.637.239-1.271.5-1.884.778l.824,1.822q.867-.392,1.762-.727Z" fill="#e73c3e"/>
    <path id="Path_26" data-name="Path 26" d="M25.475,3.736l-.446-1.949c-.66.151-1.325.327-1.975.523l.578,1.914C24.238,4.042,24.858,3.878,25.475,3.736Z" fill="#e73c3e"/>
    <path id="Path_27" data-name="Path 27" d="M29.243,3.13l-.186-1.992c-.67.062-1.352.149-2.026.259l.319,1.975c.625-.1,1.256-.184,1.893-.242Z" fill="#e73c3e"/>
    <path id="Path_28" data-name="Path 28" d="M18.349,6.407l-.942-1.764c-.6.32-1.194.663-1.767,1.021l1.059,1.7Q17.5,6.857,18.349,6.407Z" fill="#e73c3e"/>
    <path id="Path_29" data-name="Path 29" d="M31.914,3c.38,0,.768.006,1.149.019l.069-2C32.757,1.007,32.379,1,32,1c-.306,0-.609,0-.912.012l.061,2C31.4,3,31.657,3,31.914,3Z" fill="#e73c3e"/>
    <path id="Path_30" data-name="Path 30" d="M12.161,10.85,10.8,9.389c-.489.457-.974.943-1.443,1.445L10.814,12.2c.437-.47.891-.924,1.347-1.349Z" fill="#e73c3e"/>
  </g>
</svg>
