<?xml version="1.0"?>
<svg xmlns="http://www.w3.org/2000/svg" viewBox="0 0 512 512" width="512" height="512"><g id="outline"><path d="M472.779,400.987a8,8,0,0,0-3.6-5.16l-75.417-47.073a55.862,55.862,0,0,0-3.715-15.168L384,318.459V248a127.889,127.889,0,0,0-5.852-38.28L395.9,157.768l36.6-8.156-6.061,17.735a31.974,31.974,0,1,0,15.14,5.174l10.675-31.233c.023-.069.036-.128.053-.191.015-.045.036-.087.049-.132a8,8,0,0,0-1.973-7.878L337.415,18.386a8,8,0,0,0-6.771-2.314L171.1,37.633a8,8,0,0,0-5.084,13.038L199.081,90.5l-18.476,54.059A128.455,128.455,0,0,0,128,248v78.111l-2.7,5.4a55.772,55.772,0,0,0-4.621,13.068l-32.4-22.326a35.906,35.906,0,0,0-45,55.691l81.816,77.14a7.979,7.979,0,0,0,2.487,1.6l88.615,35.874a8.022,8.022,0,0,0,4.45.453l72.111-13.275a8.176,8.176,0,0,0,.861-.208l59.89-18.05,48.066,33.119a8,8,0,0,0,11.127-2.049l58.835-85.387A8,8,0,0,0,472.779,400.987Zm-33.645-196.55a16,16,0,1,1-.776-12.222A15.9,15.9,0,0,1,439.134,204.437ZM328.822,32.464,428.863,134.031,283,166.529,187.543,51.556ZM211.059,104.926l62.756,75.586a8,8,0,0,0,7.895,2.7L377.6,161.845l-15.2,44.481a240.285,240.285,0,0,1-88.638-12.756,240.273,240.273,0,0,1-77.9-44.164ZM135.481,353.851a39.761,39.761,0,0,1,4.132-15.188l3.542-7.085A7.994,7.994,0,0,0,144,328V248a112.432,112.432,0,0,1,41.131-86.728,256.158,256.158,0,0,0,83.455,47.438A256.086,256.086,0,0,0,351.7,222.562q6.636,0,13.3-.346A112.3,112.3,0,0,1,368,248v72a8,8,0,0,0,.572,2.971l5.575,13.936a104.089,104.089,0,0,0-67-9.968l-15.153,2.8a104.547,104.547,0,0,0-59.4,33.7l-64.9,5.207a37.01,37.01,0,0,0-9.243,1.948l-23.076-15.9A8.169,8.169,0,0,0,135.481,353.851ZM404.062,476.873l-44.645-30.762a8,8,0,0,0-6.847-1.072l-63.148,19.032-69.384,12.773-85.064-34.436L54.251,366.3A19.905,19.905,0,0,1,79.2,335.425l64.719,44.594a37.134,37.134,0,0,0-3.589,4.438,36.806,36.806,0,0,0,26.487,57.491l80.964,8.449a8,8,0,0,0,1.661-15.914l-80.964-8.449a20.805,20.805,0,0,1,.5-41.432l68.2-5.473a8,8,0,0,0,5.539-2.893A88.523,88.523,0,0,1,294.9,345.474l15.153-2.8A88.2,88.2,0,0,1,372.92,354.6l80.688,50.364Z"/><path d="M261.657,303.029A8,8,0,0,1,248,297.373a8,8,0,0,0-16,0,23.891,23.891,0,0,0,16,22.6l0,.031v8a8,8,0,0,0,16,0v-8l0-.031a23.891,23.891,0,0,0,16-22.6V296a24.116,24.116,0,0,0-9.6-19.2l-19.2-14.4A8.034,8.034,0,0,1,248,256v-1.373a8,8,0,0,1,16,0,8,8,0,0,0,16,0,23.892,23.892,0,0,0-16-22.6V224a8,8,0,0,0-16,0v8l0,.031a23.891,23.891,0,0,0-16,22.6V256a24.116,24.116,0,0,0,9.6,19.2l19.2,14.4A8.034,8.034,0,0,1,264,296v1.373A7.944,7.944,0,0,1,261.657,303.029Z"/><path d="M168,264a8,8,0,0,0,8-8v-8a8,8,0,0,0-16,0v8A8,8,0,0,0,168,264Z"/><path d="M168,304a8,8,0,0,0,8-8V280a8,8,0,0,0-16,0v16A8,8,0,0,0,168,304Z"/></g></svg>
