<svg xmlns="http://www.w3.org/2000/svg" width="62" height="62" viewBox="0 0 62 62">
  <g id="talent" transform="translate(-1 -1)">
    <path id="Path_1" data-name="Path 1" d="M58,15c-.028,0-.054.008-.081.008A8.073,8.073,0,0,0,58,14,7.98,7.98,0,0,0,47.807,6.313,9.974,9.974,0,0,0,29.156,9.3,10.09,10.09,0,0,0,20.9,5H14.045a5.044,5.044,0,0,0-4.512,7.3l.178.356-.35.233a5.3,5.3,0,0,0-2.089,6.089l.543,1.628A3.956,3.956,0,0,0,7,23a4,4,0,0,0,4,4h.263a8.011,8.011,0,0,0,3.511,4.78L14.193,34.1l-4.209.6A10.464,10.464,0,0,0,1,45.064V57H30.2l4.023,4.024,1.457-1.456a1.934,1.934,0,0,1,2.141-.393A1.909,1.909,0,0,1,39,60.945V63h6V60.945a1.96,1.96,0,0,1,3.324-1.377l1.457,1.455,4.243-4.244-1.456-1.456a1.935,1.935,0,0,1-.393-2.141A1.909,1.909,0,0,1,53.945,52H56V46H53.945a1.96,1.96,0,0,1-1.377-3.324l1.455-1.456-4.244-4.244-1.456,1.456a1.939,1.939,0,0,1-2.141.393A1.909,1.909,0,0,1,45,37.055V35H43V34a3,3,0,0,0-3-3H36a1,1,0,0,1,0-2H52a3,3,0,0,0,3-3,2.966,2.966,0,0,0-.184-1H58a5,5,0,0,0,0-10ZM27,21a2,2,0,0,1,0,4ZM10.47,14.555l1.819-1.213-.968-1.936A3.045,3.045,0,0,1,14.045,7H20.9a8.1,8.1,0,0,1,7.942,9.687l-.511,2.558A3.958,3.958,0,0,0,27,19h-.956l-8.578-.78a1.613,1.613,0,0,1-.575-3.048l.556-.278L16.553,13.1,16,13.383A3.6,3.6,0,0,0,14.4,14.946l-.2.154A8.018,8.018,0,0,0,11.416,19H11a3.986,3.986,0,0,0-1.512.3l-.319-.955a3.3,3.3,0,0,1,1.3-3.791ZM9,23a2,2,0,0,1,2-2h.03c-.011.167-.03.332-.03.5V25A2,2,0,0,1,9,23Zm4,2V21.5a6.024,6.024,0,0,1,1.223-3.626,3.593,3.593,0,0,0,3.063,2.338l7.714.7V25a6,6,0,0,1-12,0ZM31.432,42.676a1.935,1.935,0,0,1,.393,2.141A1.909,1.909,0,0,1,30.055,46H28v6h2.055a1.947,1.947,0,0,1,1.617,3h-6.89L22.039,44.03l.537-1.719,2.19,1.314,1.092-7.207,1.876.268a8.228,8.228,0,0,1,4.573,2.2l-2.33,2.33ZM19,40.166l1.811,1.086L20.265,43h-2.53l-.546-1.747ZM17.781,45H20.22l2.5,10H15.282Zm5.454-4.625L20.613,38.8l2.741-2.741.524.075ZM19,33a8,8,0,0,0,2.379-.361l.514,2.055L19,37.586l-2.892-2.892.514-2.055A7.983,7.983,0,0,0,19,33Zm-4.353,3.061L17.388,38.8l-2.622,1.573-.642-4.239ZM3,45.064a8.466,8.466,0,0,1,7.267-8.379l1.876-.268,1.092,7.207,2.19-1.314.537,1.719L13.219,55H3Zm42.452-4.378a3.916,3.916,0,0,0,4.287-.84l.042-.042L51.2,41.22l-.042.042A3.96,3.96,0,0,0,53.946,48H54v2h-.055a3.96,3.96,0,0,0-2.791,6.739l.042.042L49.78,58.2l-.042-.042A3.96,3.96,0,0,0,43,60.945V61H41v-.055a3.96,3.96,0,0,0-6.739-2.791l-.042.042L32.8,56.78l.042-.042A3.96,3.96,0,0,0,30.055,50H30V48h.055a3.96,3.96,0,0,0,2.791-6.739l-.042-.042L34.22,39.8l.042.042A3.96,3.96,0,0,0,41,37.054V37h2v.055a3.914,3.914,0,0,0,2.452,3.631ZM53,26a1,1,0,0,1-1,1H36a3,3,0,1,0,0,6h4a1,1,0,0,1,1,1v1H39v2.055a1.96,1.96,0,0,1-3.324,1.377L34.22,36.977l-.5.5a10.128,10.128,0,0,0-5.7-2.772l-4.209-.6-.581-2.325A8.018,8.018,0,0,0,26.738,27H27a3.985,3.985,0,0,0,3.46-2.031c.18.016.36.03.54.03H52a1,1,0,0,1,1,1Zm5-3H31a3.962,3.962,0,0,0-.885-2.478l.688-3.443A10.117,10.117,0,0,0,31,15.1c0-.033,0-.065,0-.1,0,0,0,0,.006,0a4,4,0,0,1,4,4h2a6,6,0,0,0-5.744-5.987A7.992,7.992,0,0,1,45.97,7.1a8.006,8.006,0,0,0-3.92,6.026A4,4,0,0,0,39,17h2a2,2,0,0,1,4,0h2a4,4,0,0,0-2.935-3.838A5.993,5.993,0,1,1,55.78,15.543,4.991,4.991,0,0,0,53,20h2a3,3,0,1,1,3,3Z" fill="#e73c3e"/>
    <circle id="Ellipse_1" data-name="Ellipse 1" cx="1" cy="1" r="1" transform="translate(15 22)" fill="#e73c3e"/>
    <circle id="Ellipse_2" data-name="Ellipse 2" cx="1" cy="1" r="1" transform="translate(21 22)" fill="#e73c3e"/>
    <path id="Path_2" data-name="Path 2" d="M22.789,26.658l.1-.211-1.789-.9-.1.212a2.236,2.236,0,0,1-4,0l-.1-.211-1.789.9.1.211a4.236,4.236,0,0,0,7.578,0Z" fill="#e73c3e"/>
    <path id="Path_3" data-name="Path 3" d="M39,49a3,3,0,1,0,3-3A3,3,0,0,0,39,49Zm4,0a1,1,0,1,1-1-1A1,1,0,0,1,43,49Z" fill="#e73c3e"/>
    <path id="Path_4" data-name="Path 4" d="M35,49a7,7,0,1,0,7-7A7.008,7.008,0,0,0,35,49Zm12,0a5,5,0,1,1-5-5A5.006,5.006,0,0,1,47,49Z" fill="#e73c3e"/>
  </g>
</svg>
