<svg xmlns="http://www.w3.org/2000/svg" width="512" height="440" viewBox="0 0 512 440">
  <path id="trust" d="M503.59,208.168a29.768,29.768,0,0,0-14.148-8.246,29.774,29.774,0,0,0,4.539-17.008C493.414,166.973,479.723,154,463.461,154h-59.4L404,65a35,35,0,0,0-70,0V88.555a42.506,42.506,0,0,1-3.629,17.2A82.588,82.588,0,0,1,251,23.332V12.5A12.512,12.512,0,0,0,238.5,0h-129A12.512,12.512,0,0,0,97,12.5V21a82.591,82.591,0,0,1-82.5,82.5h-2A12.512,12.512,0,0,0,0,116V266c0,95.945,78.055,174,174,174A173.892,173.892,0,0,0,331.984,339H436.539a25.821,25.821,0,0,0,18.3-7.711A24.563,24.563,0,0,0,459.891,304h3.57c16.262,0,29.953-12.973,30.52-28.914a29.755,29.755,0,0,0-4.617-17.129c12.578-3.383,22.148-14.6,22.617-27.871a29.774,29.774,0,0,0-8.391-21.918ZM174,425C86.328,425,15,353.672,15,266V118.5A97.616,97.616,0,0,0,112,21V15H236v8.332a97.643,97.643,0,0,0,84.168,96.586,42.849,42.849,0,0,1-5.852,4.492l-40.973,26.07A22.436,22.436,0,0,1,261.266,154h-9.227A22.538,22.538,0,0,0,230.5,138h-42a22.537,22.537,0,0,0-21.211,15H130.5A19.523,19.523,0,0,0,111,172.5v129A19.52,19.52,0,0,0,130.5,321H166v73.785C98.621,390.887,45,334.84,45,266.5V142.23A102.478,102.478,0,0,0,139.742,44.5H166v66a7.5,7.5,0,1,0,15,0V37a7.5,7.5,0,0,0-7.5-7.5H132.332a7.5,7.5,0,0,0-7.5,7.5v3.168A87.429,87.429,0,0,1,37.5,127.5,7.5,7.5,0,0,0,30,135V266.5C30,345.625,94.375,410,173.5,410a7.5,7.5,0,0,0,7.5-7.5V335.23a20.463,20.463,0,0,0,5.5.77h44a22.47,22.47,0,0,0,18-9.012l8,4.531A57.6,57.6,0,0,0,284.852,339h30.438A158.9,158.9,0,0,1,174,425Zm-8-119H130.5a4.506,4.506,0,0,1-4.5-4.5v-129a4.506,4.506,0,0,1,4.5-4.5H166Zm315.461-62H423a7.5,7.5,0,0,0,0,15h41a15,15,0,0,1,14.988,15.555c-.281,7.965-7.25,14.445-15.527,14.445H437c-.168,0-.336.016-.5.023-.164-.008-.332-.023-.5-.023H423a7.5,7.5,0,0,0,0,15h13c.168,0,.336-.016.5-.023.164.008.332.023.5.023a10.05,10.05,0,0,1,10,9.809,9.688,9.688,0,0,1-2.859,6.977,10.733,10.733,0,0,1-7.6,3.215H284.852a42.561,42.561,0,0,1-20.957-5.527L253,312.3V295.332a7.5,7.5,0,0,0-15,0V313.5a7.507,7.507,0,0,1-7.5,7.5h-44a5.508,5.508,0,0,1-5.5-5.5v-155a7.507,7.507,0,0,1,7.5-7.5h42a7.507,7.507,0,0,1,7.5,7.5v99.832a7.5,7.5,0,0,0,15,0V169h8.266a37.421,37.421,0,0,0,20.129-5.863l40.977-26.074A57.225,57.225,0,0,0,349,88.555V65a20,20,0,1,1,40,0l.059,91.5A12.517,12.517,0,0,0,401.559,169h61.9c8.277,0,15.246,6.48,15.527,14.445A15,15,0,0,1,464,199H423a7.5,7.5,0,0,0,0,15h59a15,15,0,0,1,14.988,15.555c-.281,7.965-7.25,14.445-15.527,14.445Zm0,0" transform="translate(0)" fill="#e73c3e"/>
</svg>
